<svg xmlns="http://www.w3.org/2000/svg" version="1.1" xmlns:xlink="http://www.w3.org/1999/xlink" xmlns:svgjs="http://svgjs.dev/svgjs" width="1440" height="560" preserveAspectRatio="none" viewBox="0 0 1440 560"><g mask="url(&quot;#SvgjsMask1008&quot;)" fill="none"><path d="M0 419.51L10 352.09L20 393.8L30 397.8L40 419.5L50 442.1L60 385.98L70 362.61L80 419.56L90 382.17L100 416.86L110 405.77L120 440.83L130 396.41L140 448.39L150 472.37L160 454.88L170 465.59L180 467.34L190 470.02L200 464.02L210 468.75L220 484.91L230 513.95L240 496.33L250 460.56L260 454.04L270 520.36L280 498.75L290 500.49L300 463.95L310 491.33L320 517.93L330 454.23L340 429.09L350 466.55L360 501.61L370 515.65L380 492.11L390 438.67L400 474.45L410 481.08L420 443.98L430 394.98L440 382.36L450 423.28L460 482.04L470 510.12L480 496.94L490 446.58L500 471.55L510 515.47L520 549.22L530 559.1L540 494.3L550 517.65L560 525.47L570 528.73L580 489.82L590 510.41L600 445.06L610 491.12L620 478.67L630 468.38L640 456.22L650 405.53L660 410.05L670 380.37L680 312.58L690 285.27L700 298.55L710 263.41L720 279.19L730 304.21L740 293.25L750 350.29L760 407.32L770 404.63L780 438.7L790 451.45L800 466.12L810 530.38L820 509.38L830 441.36L840 509.42L850 504.06L860 557.27L870 498.18L880 436.8L890 497.89L900 453.45L910 423.08L920 471.09L930 480.92L940 425.88L950 361.59L960 333.23L970 347.95L980 303.56L990 240.62L1000 180.52L1010 125L1020 154.91L1030 169.38L1040 125.86L1050 64.7L1060 121.78L1070 186.96L1080 149.56L1090 170.13L1100 171.62L1110 139.56L1120 87.59L1130 99.96L1140 75.34L1150 12.65L1160 10.08L1170 65.91L1180 13.22L1190 62.27L1200 36.88L1210 52.12L1220 10.43L1230 50.57L1240 82L1250 142.14L1260 120.33L1270 137.64L1280 85.29L1290 103.4L1300 71.13L1310 79.93L1320 145.25L1330 92.27L1340 148.56L1350 90.03L1360 91.14L1370 106L1380 142.8L1390 131.58L1400 95.63L1410 78.34L1420 127.02L1430 195.72L1440 232.05" stroke="rgba(15, 157, 88, 1)" stroke-width="2"></path><path d="M0 419.51L10 352.09L20 393.8L30 397.8L40 419.5L50 442.1L60 385.98L70 362.61L80 419.56L90 382.17L100 416.86L110 405.77L120 440.83L130 396.41L140 448.39L150 472.37L160 454.88L170 465.59L180 467.34L190 470.02L200 464.02L210 468.75L220 484.91L230 513.95L240 496.33L250 460.56L260 454.04L270 520.36L280 498.75L290 500.49L300 463.95L310 491.33L320 517.93L330 454.23L340 429.09L350 466.55L360 501.61L370 515.65L380 492.11L390 438.67L400 474.45L410 481.08L420 443.98L430 394.98L440 382.36L450 423.28L460 482.04L470 510.12L480 496.94L490 446.58L500 471.55L510 515.47L520 549.22L530 559.1L540 494.3L550 517.65L560 525.47L570 528.73L580 489.82L590 510.41L600 445.06L610 491.12L620 478.67L630 468.38L640 456.22L650 405.53L660 410.05L670 380.37L680 312.58L690 285.27L700 298.55L710 263.41L720 279.19L730 304.21L740 293.25L750 350.29L760 407.32L770 404.63L780 438.7L790 451.45L800 466.12L810 530.38L820 509.38L830 441.36L840 509.42L850 504.06L860 557.27L870 498.18L880 436.8L890 497.89L900 453.45L910 423.08L920 471.09L930 480.92L940 425.88L950 361.59L960 333.23L970 347.95L980 303.56L990 240.62L1000 180.52L1010 125L1020 154.91L1030 169.38L1040 125.86L1050 64.7L1060 121.78L1070 186.96L1080 149.56L1090 170.13L1100 171.62L1110 139.56L1120 87.59L1130 99.96L1140 75.34L1150 12.65L1160 10.08L1170 65.91L1180 13.22L1190 62.27L1200 36.88L1210 52.12L1220 10.43L1230 50.57L1240 82L1250 142.14L1260 120.33L1270 137.64L1280 85.29L1290 103.4L1300 71.13L1310 79.93L1320 145.25L1330 92.27L1340 148.56L1350 90.03L1360 91.14L1370 106L1380 142.8L1390 131.58L1400 95.63L1410 78.34L1420 127.02L1430 195.72L1440 232.05L1440 560L0 560z" fill="url(&quot;#SvgjsLinearGradient1009&quot;)"></path></g><defs><mask id="SvgjsMask1008"><rect width="1440" height="560" fill="#ffffff"></rect></mask><linearGradient x1="50%" y1="0%" x2="50%" y2="100%" id="SvgjsLinearGradient1009"><stop stop-opacity="0.65" stop-color="rgba(15, 157, 88, 1)" offset="0"></stop><stop stop-opacity="0" stop-color="#55efa4" offset="0.8"></stop></linearGradient></defs></svg>